<svg viewBox="0 0 22 22" xmlns="http://www.w3.org/2000/svg">
  <rect id="Rectangle" stroke="#FFFFFF" stroke-width="3" fill="#4A90E2" x="1.79999995" y="1.70000005" width="18" height="18" rx="6"></rect>
  <path d="M15.5,6.52 C15.35,5.86 14.9,5.6 14.21,5.33 C13.55,5.07 11.94,4.76 10.75,4.75 C9.56,4.75 7.95,5.07 7.28,5.33 C6.6,5.59 6.15,5.86 6.01,6.52 L5.5,10.19 L5.5,15.24 L6.38,15.24 L6.38,16.03 C6.38,16.99 7.89,16.99 7.89,16.03 L7.89,15.23 L13.61,15.23 L13.61,16.03 C13.61,16.99 15.12,16.99 15.12,16.03 L15.12,15.23 L16,15.23 L16,10.18 L15.49,6.52 L15.5,6.52 Z M8.59,6.19 L12.91,6.19 C13.34,6.19 13.34,6.79 12.91,6.79 L8.6,6.79 C8.4577615,6.76370104 8.35454356,6.63964932 8.35454356,6.495 C8.35454356,6.35035068 8.4577615,6.22629896 8.6,6.2 L8.59,6.19 Z M7.13,13.66 C6.73,13.66 6.41,13.36 6.41,12.97 C6.41,12.6 6.73,12.3 7.12,12.3 C7.52,12.3 7.85,12.6 7.85,12.97 C7.85,13.35 7.52,13.65 7.12,13.65 L7.13,13.65 L7.13,13.66 Z M10.7,10.97 L7.12,10.97 C6.74,10.97 6.66,10.72 6.7,10.47 L7.1,7.81 C7.15,7.48 7.27,7.27 7.72,7.27 L13.76,7.27 C14.22,7.27 14.33,7.48 14.39,7.81 L14.79,10.47 C14.83,10.72 14.75,10.97 14.38,10.97 L10.7,10.97 Z M14.37,13.65 C13.97,13.65 13.64,13.35 13.64,12.97 C13.64,12.6 13.97,12.3 14.37,12.3 C14.77,12.3 15.09,12.6 15.11,12.97 C15.11,13.35 14.78,13.65 14.38,13.65 L14.37,13.65 Z" id="Shape" fill="#FFFFFF" fill-rule="nonzero"></path>
</svg>