<svg xmlns="http://www.w3.org/2000/svg" width="458" height="399" viewBox="0 0 458 399">
  <g fill="none">
    <path fill="#FFF" d="M303 347L303 383.666667C303 387.714667 306.304 391 310.375 391L354.625 391C358.696 391 362 387.714667 362 383.666667L362 347M96 347L96 383.666667C96 387.714667 99.304 391 103.375 391L147.625 391C151.696 391 155 387.714667 155 383.666667L155 347"/>
    <rect width="30" height="44" x="421" y="96" fill="#FFF"/>
    <rect width="30" height="44" x="7" y="96" fill="#FFF"/>
    <path fill="#FFF" d="M361.454545,347 L95.5454545,347 C79.2289773,347 66,333.762174 66,317.434783 L66,36.5652174 C66,20.2378261 79.2289773,7 95.5454545,7 L361.454545,7 C377.771023,7 391,20.2378261 391,36.5652174 L391,317.434783 C391,333.762174 377.771023,347 361.454545,347 Z"/>
    <rect width="163" height="118" x="229" y="52" fill="#FFF"/>
    <circle cx="310" cy="103" r="22" fill="#FFF"/>
    <path fill="#FFF" d="M273,170 L273,162.666667 C273,142.419333 289.5686,126 310,126 C330.4314,126 347,142.419333 347,162.666667 L347,170"/>
    <rect width="163" height="118" x="66" y="52" fill="#FFF"/>
    <path fill="#FFF" d="M111,170 L111,125.75 C111,117.600625 117.623,111 125.8,111 L170.2,111 C178.377,111 185,117.600625 185,125.75 L185,170"/>
    <rect width="325" height="30" x="66" y="170" fill="#FFF"/>
    <circle cx="332.5" cy="258.5" r="29.5" fill="#FFF"/>
    <circle cx="125.5" cy="258.5" r="29.5" fill="#FFF"/>
    <polyline fill="#FFF" points="170 347 170 303 288 303 288 347"/>
    <path fill="#000" d="M362.043478,355 L95.9565217,355 C75.5786957,355 59,338.411146 59,318.020833 L59,36.9791667 C59,16.5888542 75.5786957,0 95.9565217,0 L362.043478,0 C382.421304,0 399,16.5888542 399,36.9791667 L399,318.020833 C399,338.411146 382.421304,355 362.043478,355 Z M95.9565217,14.7916667 C83.7313043,14.7916667 73.7826087,24.7464583 73.7826087,36.9791667 L73.7826087,318.020833 C73.7826087,330.253542 83.7313043,340.208333 95.9565217,340.208333 L362.043478,340.208333 C374.268696,340.208333 384.217391,330.253542 384.217391,318.020833 L384.217391,36.9791667 C384.217391,24.7464583 374.268696,14.7916667 362.043478,14.7916667 L95.9565217,14.7916667 Z"/>
    <path fill="#000" d="M148.2 399L103.8 399C95.6378 399 89 392.336571 89 384.142857L89 347 103.8 347 103.8 384.142857 148.2 384.142857 148.2 347 163 347 163 384.142857C163 392.336571 156.3622 399 148.2 399zM354.2 399L309.8 399C301.6378 399 295 392.336571 295 384.142857L295 347 309.8 347 309.8 384.142857 354.2 384.142857 354.2 347 369 347 369 384.142857C369 392.336571 362.3622 399 354.2 399z"/>
    <rect width="325" height="15" x="66" y="192" fill="#000"/>
    <path fill="#000" d="M444,96 L429.142857,96 L429.142857,58.8571429 L392,58.8571429 L392,44 L436.571429,44 C440.672,44 444,47.328 444,51.4285714 L444,96 Z"/>
    <rect width="325" height="15" x="66" y="44" fill="#000"/>
    <rect width="15" height="148" x="222" y="52" fill="#000"/>
    <rect width="325" height="15" x="66" y="163" fill="#000"/>
    <path fill="#000" d="M192 170L177.166667 170 177.166667 126C177.166667 121.959333 173.836583 118.666667 169.75 118.666667L125.25 118.666667C121.163417 118.666667 117.833333 121.959333 117.833333 126L117.833333 170 103 170 103 126C103 113.870667 112.982833 104 125.25 104L169.75 104C182.017167 104 192 113.870667 192 126L192 170zM126 296C105.5982 296 89 279.4018 89 259 89 238.5982 105.5982 222 126 222 146.4018 222 163 238.5982 163 259 163 279.4018 146.4018 296 126 296zM126 236.8C113.7604 236.8 103.8 246.7604 103.8 259 103.8 271.2396 113.7604 281.2 126 281.2 138.2396 281.2 148.2 271.2396 148.2 259 148.2 246.7604 138.2396 236.8 126 236.8zM332 296C311.5982 296 295 279.4018 295 259 295 238.5982 311.5982 222 332 222 352.4018 222 369 238.5982 369 259 369 279.4018 352.4018 296 332 296zM332 236.8C319.7604 236.8 309.8 246.7604 309.8 259 309.8 271.2396 319.7604 281.2 332 281.2 344.2396 281.2 354.2 271.2396 354.2 259 354.2 246.7604 344.2396 236.8 332 236.8zM296 348L281.222222 348 281.222222 310.857143 177.777778 310.857143 177.777778 348 163 348 163 303.428571C163 299.328 166.310222 296 170.388889 296L288.611111 296C292.689778 296 296 299.328 296 303.428571L296 348zM310.5 133C294.23075 133 281 119.76925 281 103.5 281 87.23075 294.23075 74 310.5 74 326.76925 74 340 87.23075 340 103.5 340 119.76925 326.76925 133 310.5 133zM310.5 88.75C302.365375 88.75 295.75 95.365375 295.75 103.5 295.75 111.634625 302.365375 118.25 310.5 118.25 318.634625 118.25 325.25 111.634625 325.25 103.5 325.25 95.365375 318.634625 88.75 310.5 88.75z"/>
    <path fill="#000" d="M355 170L340.166667 170 340.166667 162.571429C340.166667 146.184 326.861167 132.857143 310.5 132.857143 294.138833 132.857143 280.833333 146.184 280.833333 162.571429L280.833333 170 266 170 266 162.571429C266 137.990286 285.95825 118 310.5 118 335.04175 118 355 137.990286 355 162.571429L355 170zM450.666667 148L421.333333 148C417.285333 148 414 144.696 414 140.625L414 96.375C414 92.304 417.285333 89 421.333333 89L450.666667 89C454.714667 89 458 92.304 458 96.375L458 140.625C458 144.696 454.714667 148 450.666667 148zM428.666667 133.25L443.333333 133.25 443.333333 103.75 428.666667 103.75 428.666667 133.25zM29.8571429 96L15 96 15 51.4285714C15 47.328 18.328 44 22.4285714 44L67 44 67 58.8571429 29.8571429 58.8571429 29.8571429 96z"/>
    <path fill="#000" d="M36.6666667,148 L7.33333333,148 C3.28533333,148 0,144.696 0,140.625 L0,96.375 C0,92.304 3.28533333,89 7.33333333,89 L36.6666667,89 C40.7146667,89 44,92.304 44,96.375 L44,140.625 C44,144.696 40.7146667,148 36.6666667,148 Z M14.6666667,133.25 L29.3333333,133.25 L29.3333333,103.75 L14.6666667,103.75 L14.6666667,133.25 Z"/>
  </g>
</svg>
