<svg height="512pt" viewBox="0 -111 512.00088 512" width="512pt" xmlns="http://www.w3.org/2000/svg"><path d="m418.132812 238.933594c0 23.5625-19.101562 42.664062-42.664062 42.664062-23.566406 0-42.667969-19.101562-42.667969-42.664062 0-23.566406 19.101563-42.667969 42.667969-42.667969 23.5625 0 42.664062 19.101563 42.664062 42.667969zm0 0" fill="#333"/><path d="m145.066406 238.933594c0 23.5625-19.101562 42.664062-42.667968 42.664062-23.5625 0-42.664063-19.101562-42.664063-42.664062 0-23.566406 19.101563-42.667969 42.664063-42.667969 23.566406 0 42.667968 19.101563 42.667968 42.667969zm0 0" fill="#333"/><path d="m238.933594 85.332031h59.734375v187.734375h-59.734375zm0 0" fill="#e7b900"/><path d="m179.199219 85.332031h59.734375v187.734375h-59.734375zm0 0" fill="#ffd422"/><path d="m452.265625 51.199219h-443.730469v-42.667969h418.132813zm0 0" fill="#ebe5dd"/><path d="m179.199219 162.132812h-170.664063v110.933594h51.199219v-34.132812c0-23.5625 19.101563-42.667969 42.664063-42.667969 23.566406 0 42.667968 19.105469 42.667968 42.667969v34.132812h34.132813zm0 0" fill="#f40e34"/><path d="m298.667969 162.132812v110.933594h34.132812v-34.132812c0-23.5625 19.101563-42.667969 42.664063-42.667969 23.566406 0 42.667968 19.105469 42.667968 42.667969v34.132812h51.199219v-110.933594zm0 0" fill="#f40e34"/><path d="m384 162.132812v-110.933593h68.265625l17.066406 110.933593zm0 0" fill="#1e81ce"/><path d="m93.867188 51.199219h85.332031v110.933593h-85.332031zm0 0" fill="#5aaae7"/><path d="m8.535156 51.199219h85.332032v110.933593h-85.332032zm0 0" fill="#1e81ce"/><path d="m298.667969 51.199219h85.332031v110.933593h-85.332031zm0 0" fill="#5aaae7"/><path d="m179.199219 51.199219h119.46875v34.132812h-119.46875zm0 0" fill="#1e81ce"/><path d="m384 238.933594c0 4.710937-3.820312 8.53125-8.53125 8.53125-4.714844 0-8.535156-3.820313-8.535156-8.53125 0-4.714844 3.820312-8.535156 8.535156-8.535156 4.710938 0 8.53125 3.820312 8.53125 8.535156zm0 0" fill="#ebe5dd"/><path d="m110.933594 238.933594c0 4.710937-3.820313 8.53125-8.535156 8.53125-4.710938 0-8.53125-3.820313-8.53125-8.53125 0-4.714844 3.820312-8.535156 8.53125-8.535156 4.714843 0 8.535156 3.820312 8.535156 8.535156zm0 0" fill="#ebe5dd"/><path d="m503.464844 110.933594h-17.066406v-17.066406h8.535156v-34.132813h-42.667969v-17.066406h51.199219c4.71875 0 8.535156 3.816406 8.535156 8.53125v51.199219c0 4.71875-3.816406 8.535156-8.535156 8.535156zm0 0" fill="#ffd422"/><g fill="#fff"><path d="m324.265625 170.667969h17.066406v17.066406h-17.066406zm0 0"/><path d="m358.402344 170.667969h93.863281v17.066406h-93.863281zm0 0"/><path d="m25.601562 25.597656h17.066407v17.066406h-17.066407zm0 0"/><path d="m59.734375 25.597656h110.933594v17.066406h-110.933594zm0 0"/><path d="m59.734375 145.066406h-25.601563c-4.714843 0-8.53125-3.816406-8.53125-8.535156v-42.664062h17.066407v34.132812h17.066406zm0 0"/><path d="m25.601562 59.734375h17.066407v17.066406h-17.066407zm0 0"/></g><path d="m392.535156 238.933594c0 9.425781-7.644531 17.066406-17.066406 17.066406-9.425781 0-17.066406-7.640625-17.066406-17.066406 0-9.425782 7.640625-17.066406 17.066406-17.066406 9.421875 0 17.066406 7.640624 17.066406 17.066406zm0 0"/><path d="m119.464844 238.933594c0 9.425781-7.640625 17.066406-17.066406 17.066406-9.425782 0-17.066407-7.640625-17.066407-17.066406 0-9.425782 7.640625-17.066406 17.066407-17.066406 9.425781 0 17.066406 7.640624 17.066406 17.066406zm0 0"/><path d="m503.464844 42.667969h-46.367188l-23.113281-38.527344c-1.542969-2.566406-4.316406-4.140625-7.316406-4.140625h-418.132813c-4.71875 0-8.535156 3.816406-8.535156 8.535156v264.53125c0 4.714844 3.816406 8.535156 8.535156 8.535156h51.199219c3.539063 0 6.570313-2.152343 7.863281-5.222656 9.144532 8.503906 21.359375 13.753906 34.800782 13.753906 13.445312 0 25.660156-5.246093 34.804687-13.753906 1.289063 3.070313 4.324219 5.222656 7.863281 5.222656h187.734375c3.539063 0 6.570313-2.152343 7.863281-5.222656 9.148438 8.503906 21.359376 13.753906 34.804688 13.753906 13.441406 0 25.65625-5.246093 34.800781-13.753906 1.292969 3.070313 4.324219 5.222656 7.867188 5.222656h51.199219c4.714843 0 8.53125-3.820312 8.53125-8.535156v-110.933594c0-.242187-.117188-.445312-.136719-.683593-.015625-.210938.070312-.410157.039062-.617188l-15.554687-101.097656h32.71875v34.132813h-8.53125v17.066406h17.066406c4.714844 0 8.53125-3.816406 8.53125-8.535156v-51.199219c0-4.714844-3.816406-8.53125-8.535156-8.53125zm-196.265625 110.933593v-93.867187h68.269531v93.867187zm-68.265625-76.800781h-51.199219v-17.066406h102.398437v17.066406zm-221.867188 76.800781v-93.867187h68.265625v93.867187zm85.332032-93.867187h68.269531v93.867187h-68.269531zm290.136718 0h52.40625l14.441406 93.867187h-66.847656zm-375.46875-42.667969h404.765625l15.359375 25.597656h-420.125zm85.332032 256c-18.824219 0-34.132813-15.308594-34.132813-34.132812 0-18.824219 15.308594-34.132813 34.132813-34.132813 18.828124 0 34.132812 15.308594 34.132812 34.132813 0 18.824218-15.304688 34.132812-34.132812 34.132812zm51.203124-34.132812c0-28.234375-22.96875-51.199219-51.203124-51.199219-28.234376 0-51.199219 22.964844-51.199219 51.199219v25.601562h-34.132813v-93.867187h153.601563v93.867187h-17.066407zm34.132813-76.800782v-68.265624h42.664063v170.667968h-42.664063zm59.730469-68.265624h42.667968v170.667968h-42.667968zm128.003906 179.199218c-18.828125 0-34.136719-15.308594-34.136719-34.132812 0-18.824219 15.308594-34.132813 34.136719-34.132813 18.824219 0 34.132812 15.308594 34.132812 34.132813 0 18.824218-15.308593 34.132812-34.132812 34.132812zm85.332031-8.53125h-34.132812v-25.601562c0-28.234375-22.96875-51.199219-51.199219-51.199219-28.234375 0-51.203125 22.964844-51.203125 51.199219v25.601562h-17.066406v-93.867187h153.601562zm0 0"/></svg>